<?xml version="1.0" encoding="UTF-8"?>
<svg width="219px" height="71px" viewBox="0 0 219 71" version="1.1" xmlns="http://www.w3.org/2000/svg" xmlns:xlink="http://www.w3.org/1999/xlink">
    <!-- Generator: Sketch 52.3 (67297) - http://www.bohemiancoding.com/sketch -->
    <title>logo</title>
    <desc>Created with Sketch.</desc>
    <g id="Pages" stroke="none" stroke-width="1" fill="none" fill-rule="evenodd">
        <g id="Apple-TV" transform="translate(-282.000000, -252.000000)" fill="#333333">
            <g id="logo" transform="translate(282.000000, 252.000000)">
                <path d="M61.992,67.96 C61.3759969,67.96 60.9140015,67.764002 60.606,67.372 C60.2979985,66.979998 60.1999994,66.5040028 60.312,65.944 L72.156,10.336 C72.2680006,9.71999692 72.5619976,9.23000182 73.038,8.866 C73.5140024,8.50199818 74.0319972,8.32 74.592,8.32 L81.396,8.32 C82.0120031,8.32 82.4599986,8.51599804 82.74,8.908 C83.0200014,9.30000196 83.1040006,9.7759972 82.992,10.336 L82.32,13.696 C84.2240095,11.6799899 86.2399894,10.1400053 88.368,9.076 C90.4960106,8.01199468 93.1279843,7.48 96.264,7.48 C101.136024,7.48 104.831987,8.85198628 107.352,11.596 C109.872013,14.3400137 111.132,18.0359768 111.132,22.684 C111.132,24.0280067 110.992001,25.595991 110.712,27.388 C110.487999,28.9560078 110.096003,30.8039894 109.536,32.932 C108.023992,38.92403 105.448018,43.7399818 101.808,47.38 C98.1679818,51.0200182 93.5200283,52.84 87.864,52.84 C84.8399849,52.84 82.3060102,52.3080053 80.262,51.244 C78.2179898,50.1799947 76.7200048,48.7240092 75.768,46.876 L71.736,65.944 C71.6239994,66.5600031 71.3300024,67.0499982 70.854,67.414 C70.3779976,67.7780018 69.8600028,67.96 69.3,67.96 L61.992,67.96 Z M85.932,43.768 C89.0120154,43.768 91.5319902,42.7460102 93.492,40.702 C95.4520098,38.6579898 96.935995,35.9840165 97.944,32.68 C98.3920022,31.1679924 98.7559986,29.4880092 99.036,27.64 C99.2040008,26.4639941 99.288,25.3160056 99.288,24.196 C99.288,19.0999745 96.992023,16.552 92.4,16.552 C89.1519838,16.552 86.4360109,17.6019895 84.252,19.702 C82.0679891,21.8020105 80.6400034,24.3079854 79.968,27.22 C79.4079972,29.2360101 78.932002,31.3919885 78.54,33.688 C78.3719992,34.5280042 78.288,35.3399961 78.288,36.124 C78.288,38.3640112 78.9039938,40.1979929 80.136,41.626 C81.3680062,43.0540071 83.2999868,43.768 85.932,43.768 Z M132.708,52.84 C127.891976,52.84 124.252012,51.4960134 121.788,48.808 C119.323988,46.1199866 118.092,42.4520232 118.092,37.804 C118.092,36.403993 118.231999,34.7800092 118.512,32.932 C118.736001,31.3639922 119.127997,29.5160106 119.688,27.388 C121.256008,21.3399698 123.831982,16.5100181 127.416,12.898 C131.000018,9.28598194 135.675971,7.48 141.444,7.48 C144.692016,7.48 147.239991,7.9699951 149.088,8.95 C150.936009,9.9300049 152.419994,11.315991 153.54,13.108 L154.128,10.336 C154.240001,9.71999692 154.533998,9.23000182 155.01,8.866 C155.486002,8.50199818 156.003997,8.32 156.564,8.32 L163.284,8.32 C163.900003,8.32 164.361998,8.51599804 164.67,8.908 C164.978002,9.30000196 165.076001,9.7759972 164.964,10.336 L156.564,49.984 C156.451999,50.6000031 156.158002,51.0899982 155.682,51.454 C155.205998,51.8180018 154.688003,52 154.128,52 L147.408,52 C146.791997,52 146.330002,51.804002 146.022,51.412 C145.713998,51.019998 145.615999,50.5440028 145.728,49.984 L146.4,46.876 C144.43999,48.8360098 142.43801,50.319995 140.394,51.328 C138.34999,52.336005 135.788015,52.84 132.708,52.84 Z M136.572,43.768 C139.764016,43.768 142.423989,42.7320104 144.552,40.66 C146.680011,38.5879896 148.107996,36.0680148 148.836,33.1 C149.396003,30.8039885 149.843998,28.6480101 150.18,26.632 C150.348001,25.6799952 150.432,24.7840042 150.432,23.944 C150.432,21.7599891 149.844006,19.9820069 148.668,18.61 C147.491994,17.2379931 145.616013,16.552 143.04,16.552 C137.383972,16.552 133.464011,20.247963 131.28,27.64 C130.831998,29.1520076 130.468001,30.8319908 130.188,32.68 C129.963999,34.3600084 129.852,35.5919961 129.852,36.376 C129.852,38.7280118 130.355995,40.5479936 131.364,41.836 C132.372005,43.1240064 134.107988,43.768 136.572,43.768 Z M184.944,70.48 C180.183976,70.48 176.404014,69.6680081 173.604,68.044 C170.803986,66.4199919 168.886005,64.5440106 167.85,62.416 C166.813995,60.2879894 166.407999,58.4960073 166.632,57.04 C166.688,56.4799972 166.939998,55.9900021 167.388,55.57 C167.836002,55.1499979 168.339997,54.94 168.9,54.94 L176.628,54.94 C177.132003,54.94 177.537998,55.0659987 177.846,55.318 C178.154002,55.5700013 178.336,56.0319966 178.392,56.704 C178.840002,60.2320176 181.247978,61.996 185.616,61.996 C192.280033,61.996 196.311993,58.6640333 197.712,52 L198.888,46.288 C197.039991,48.0240087 195.09401,49.3539954 193.05,50.278 C191.00599,51.2020046 188.556014,51.664 185.7,51.664 C180.659975,51.664 176.908012,50.3760129 174.444,47.8 C171.979988,45.2239871 170.748,41.640023 170.748,37.048 C170.748,35.0879902 170.887999,33.3800073 171.168,31.924 C171.392001,30.523993 171.699998,29.0120081 172.092,27.388 C173.716008,21.2839695 176.291982,16.4400179 179.82,12.856 C183.348018,9.27198208 187.995971,7.48 193.764,7.48 C196.788015,7.48 199.377989,8.05399426 201.534,9.202 C203.690011,10.3500057 205.271995,11.8479908 206.28,13.696 L207.036,10.42 C207.148001,9.80399692 207.441998,9.30000196 207.918,8.908 C208.394002,8.51599804 208.911997,8.32 209.472,8.32 L216.444,8.32 C217.004003,8.32 217.437998,8.5299979 217.746,8.95 C218.054002,9.3700021 218.152001,9.8599972 218.04,10.42 L209.472,50.908 C208.071993,57.3480322 205.468019,62.2199835 201.66,65.524 C197.851981,68.8280165 192.280037,70.48 184.944,70.48 Z M189.48,42.76 C192.616016,42.76 195.275989,41.7380102 197.46,39.694 C199.644011,37.6499898 201.099996,35.2000143 201.828,32.344 C202.332003,30.3839902 202.695999,28.5920081 202.92,26.968 C203.088001,26.1279958 203.172,25.2600045 203.172,24.364 C203.172,22.0679885 202.570006,20.1920073 201.366,18.736 C200.161994,17.2799927 198.272013,16.552 195.696,16.552 C192.559984,16.552 189.99801,17.5879896 188.01,19.66 C186.02199,21.7320104 184.580004,24.3919838 183.684,27.64 C183.235998,29.0960073 182.928001,30.4399938 182.76,31.672 C182.535999,33.3520084 182.424,34.5839961 182.424,35.368 C182.424,40.2960246 184.775976,42.76 189.48,42.76 Z" id="pag"></path>
                <path d="M6.996,52.724 C6.49199748,52.724 6.08600154,52.5560017 5.778,52.22 C5.46999846,51.8839983 5.39999916,51.4640025 5.568,50.96 L8.928,41.888 L1.788,41.888 C1.2279972,41.888 0.79400154,41.7060018 0.486,41.342 C0.17799846,40.9779982 0.07999944,40.5160028 0.192,39.956 L1.284,35.084 C1.39600056,34.5239972 1.67599776,34.0620018 2.124,33.698 C2.57200224,33.3339982 3.0759972,33.152 3.636,33.152 L12.036,33.152 L16.572,20.552 L8.508,20.552 C7.9479972,20.552 7.51400154,20.3700018 7.206,20.006 C6.89799846,19.6419982 6.79999944,19.1800028 6.912,18.62 L8.004,13.748 C8.11600056,13.1879972 8.39599776,12.7260018 8.844,12.362 C9.29200224,11.9979982 9.7959972,11.816 10.356,11.816 L19.764,11.816 L23.04,2.744 C23.2080008,2.23999748 23.5019979,1.82000168 23.922,1.484 C24.3420021,1.14799832 24.8039975,0.98 25.308,0.98 L30.264,0.98 C30.7680025,0.98 31.1599986,1.14799832 31.44,1.484 C31.7200014,1.82000168 31.8040006,2.23999748 31.692,2.744 L28.416,11.816 L38.832,11.816 L42.108,2.744 C42.2760008,2.23999748 42.5699979,1.82000168 42.99,1.484 C43.4100021,1.14799832 43.8719975,0.98 44.376,0.98 L49.332,0.98 C49.8360025,0.98 50.2279986,1.14799832 50.508,1.484 C50.7880014,1.82000168 50.8720006,2.23999748 50.76,2.744 L47.484,11.816 L54.456,11.816 C55.0160028,11.816 55.4359986,11.9979982 55.716,12.362 C55.9960014,12.7260018 56.0800006,13.1879972 55.968,13.748 L54.876,18.62 C54.8199997,19.1800028 54.5680022,19.6419982 54.12,20.006 C53.6719978,20.3700018 53.1680028,20.552 52.608,20.552 L44.376,20.552 L39.756,33.152 L47.736,33.152 C48.2960028,33.152 48.7159986,33.3339982 48.996,33.698 C49.2760014,34.0620018 49.3600006,34.5239972 49.248,35.084 L48.156,39.956 C48.0999997,40.5160028 47.8480022,40.9779982 47.4,41.342 C46.9519978,41.7060018 46.4480028,41.888 45.888,41.888 L36.648,41.888 L33.372,50.96 C33.1479989,51.4640025 32.8260021,51.8839983 32.406,52.22 C31.9859979,52.5560017 31.5240025,52.724 31.02,52.724 L26.064,52.724 C25.5599975,52.724 25.1680014,52.5560017 24.888,52.22 C24.6079986,51.8839983 24.5239994,51.4640025 24.636,50.96 L27.996,41.888 L17.496,41.888 L14.304,50.96 C14.0799989,51.4640025 13.7580021,51.8839983 13.338,52.22 C12.9179979,52.5560017 12.4560025,52.724 11.952,52.724 L6.996,52.724 Z M20.688,33.152 L31.104,33.152 L35.64,20.552 L25.308,20.552 L20.688,33.152 Z" id="#"></path>
            </g>
        </g>
    </g>
</svg>