<?xml version="1.0" encoding="UTF-8"?>
<svg width="15px" height="15px" viewBox="0 0 15 15" version="1.1" xmlns="http://www.w3.org/2000/svg" xmlns:xlink="http://www.w3.org/1999/xlink">
    <!-- Generator: Sketch 51.3 (57544) - http://www.bohemiancoding.com/sketch -->
    <title>Group</title>
    <desc>Created with Sketch.</desc>
    <defs></defs>
    <g id="Symbols" stroke="none" stroke-width="1" fill="none" fill-rule="evenodd">
        <g id="sort-option/open" transform="translate(-223.000000, -23.000000)">
            <g id="Group-6">
                <g transform="translate(32.000000, 18.000000)">
                    <g id="Group" transform="translate(191.000000, 5.000000)">
                        <rect id="Rectangle-6" fill="#FFFFFF" x="0" y="0" width="15" height="15"></rect>
                        <path d="M13.6197183,6 L2.38028169,6 C1.96400346,6 1.62989221,6.12597844 1.37793532,6.37793532 C1.12597844,6.62989221 1,6.96400346 1,7.38028169 C1,7.81846776 1.12597844,8.16353713 1.37793532,8.41549401 C1.62989221,8.66745089 1.96400346,8.79342513 2.38028169,8.79342513 L13.6197183,8.79342513 C14.0359965,8.79342513 14.3701078,8.66745089 14.6220647,8.41549401 C14.8740216,8.16353713 15,7.81846776 15,7.38028169 C15,6.96400346 14.8740216,6.62989221 14.6220647,6.37793532 C14.3701078,6.12597844 14.0359965,6 13.6197183,6 Z" id="Fill-1" fill="#333333"></path>
                    </g>
                </g>
            </g>
        </g>
    </g>
</svg>