<?xml version="1.0" encoding="UTF-8"?>
<svg width="16px" height="15px" viewBox="0 0 16 15" version="1.1" xmlns="http://www.w3.org/2000/svg" xmlns:xlink="http://www.w3.org/1999/xlink">
    <!-- Generator: Sketch 51.3 (57544) - http://www.bohemiancoding.com/sketch -->
    <title>Fill 1</title>
    <desc>Created with Sketch.</desc>
    <defs></defs>
    <g id="Pages" stroke="none" stroke-width="1" fill="none" fill-rule="evenodd">
        <g id="item-list-copy-4" transform="translate(-954.000000, -153.000000)" fill="#A0A0A0">
            <path d="M966.010553,160.491206 C965.787808,160.491206 965.606097,160.561546 965.465417,160.702226 C965.324737,160.842908 965.254397,161.024617 965.254397,161.247362 L965.254397,165.749121 C965.254397,165.971865 965.186988,166.153575 965.052169,166.294255 C964.91735,166.434936 964.738572,166.505275 964.515827,166.505275 L956.250879,166.505275 C956.028135,166.505275 955.849356,166.434936 955.714537,166.294255 C955.579718,166.153575 955.51231,165.971865 955.51231,165.749121 L955.51231,157.501759 C955.51231,157.267289 955.579718,157.08265 955.714537,156.947831 C955.849356,156.813012 956.028135,156.745603 956.250879,156.745603 L960.752638,156.745603 C960.987106,156.745603 961.171748,156.678194 961.306566,156.543375 C961.441385,156.408556 961.508794,156.223917 961.508794,155.989447 C961.508794,155.766704 961.441385,155.587924 961.306566,155.453105 C961.171748,155.318287 960.987106,155.250879 960.752638,155.250879 L956.250879,155.250879 C955.617816,155.250879 955.08441,155.464828 954.650645,155.892731 C954.216879,156.320635 954,156.856972 954,157.501759 L954,165.749121 C954,166.382184 954.216879,166.91559 954.650645,167.349355 C955.08441,167.783121 955.617816,168 956.250879,168 L964.515827,168 C965.148889,168 965.682296,167.783121 966.116061,167.349355 C966.549828,166.91559 966.766707,166.382184 966.766707,165.749121 L966.766707,161.247362 C966.766707,161.024617 966.696367,160.842908 966.555687,160.702226 C966.415007,160.561546 966.233296,160.491206 966.010553,160.491206 Z M968.92966,153.439624 C968.89449,153.369284 968.841736,153.298944 968.771396,153.228604 C968.701056,153.158264 968.630716,153.10551 968.560376,153.07034 C968.525206,153.035168 968.475383,153.014653 968.410904,153.008792 C968.346426,153.002931 968.296602,153 968.261432,153 L963.759674,153 C963.536929,153 963.355218,153.067407 963.214538,153.202226 C963.073858,153.337044 963.003518,153.515825 963.003518,153.738568 C963.003518,153.973037 963.073858,154.157677 963.214538,154.292495 C963.355218,154.427314 963.536929,154.494723 963.759674,154.494723 L966.467761,154.494723 L959.486519,161.475966 C959.334114,161.62837 959.257915,161.804218 959.257915,162.003518 C959.257915,162.202815 959.334114,162.378663 959.486519,162.531065 C959.556859,162.601408 959.63306,162.654161 959.715122,162.689331 C959.797187,162.724501 959.896834,162.742085 960.014068,162.742085 C960.119578,162.742085 960.213364,162.724501 960.295428,162.689331 C960.377493,162.654161 960.459553,162.601408 960.541618,162.531065 L967.505277,155.549823 L967.505277,158.240326 C967.505277,158.474796 967.575616,158.659436 967.716296,158.794254 C967.856976,158.929073 968.038688,158.996482 968.261432,158.996482 C968.484175,158.996482 968.665886,158.929073 968.806566,158.794254 C968.947246,158.659436 969.017586,158.474796 969.017586,158.240326 L969.017586,153.738568 C969.017586,153.703398 969.014655,153.653574 969.008794,153.589096 C969.002933,153.524617 968.976555,153.474794 968.92966,153.439624 Z" id="Fill-1"></path>
        </g>
    </g>
</svg>