<?xml version="1.0" encoding="UTF-8"?>
<svg width="15px" height="15px" viewBox="0 0 15 15" version="1.1" xmlns="http://www.w3.org/2000/svg" xmlns:xlink="http://www.w3.org/1999/xlink">
    <!-- Generator: Sketch 51.3 (57544) - http://www.bohemiancoding.com/sketch -->
    <title>Fill 1</title>
    <desc>Created with Sketch.</desc>
    <defs></defs>
    <g id="Symbols" stroke="none" stroke-width="1" fill="none" fill-rule="evenodd">
        <g id="sort-option/close" transform="translate(-223.000000, -20.000000)" fill="#333333">
            <g id="Fill-1">
                <path d="M237.055636,26.5666187 L231.433381,26.5666187 L231.433381,20.9443644 C231.433381,20.6515377 231.345534,20.4209382 231.169838,20.2525629 C230.994143,20.0841876 230.767203,20 230.489017,20 C230.210833,20 229.983894,20.0841876 229.808198,20.2525629 C229.632503,20.4209382 229.544655,20.6515377 229.544655,20.9443644 L229.544655,26.5666187 L223.922401,26.5666187 C223.644215,26.5666187 223.420938,26.6508063 223.252562,26.8191816 C223.084187,26.9875568 223,27.2108334 223,27.4890197 C223,27.7818464 223.084187,28.012446 223.252562,28.1808213 C223.420938,28.3491965 223.644215,28.4333813 223.922401,28.4333813 L229.544655,28.4333813 L229.544655,34.055637 C229.544655,34.3338228 229.632503,34.5607605 229.808198,34.7364568 C229.983894,34.9121531 230.210833,35 230.489017,35 C230.767203,35 230.994143,34.9121531 231.169838,34.7364568 C231.345534,34.5607605 231.433381,34.3338228 231.433381,34.055637 L231.433381,28.4333813 L237.055636,28.4333813 C237.333822,28.4333813 237.557098,28.3491965 237.725474,28.1808213 C237.893849,28.012446 237.978037,27.7818464 237.978037,27.4890197 C237.978037,27.2108334 237.893849,26.9875568 237.725474,26.8191816 C237.557098,26.6508063 237.333822,26.5666187 237.055636,26.5666187 Z"></path>
            </g>
        </g>
    </g>
</svg>